<?xml version="1.0" encoding="iso-8859-1"?>
<!-- Generator: Adobe Illustrator 22.0.0, SVG Export Plug-In . SVG Version: 6.00 Build 0)  -->
<svg xmlns="http://www.w3.org/2000/svg" xmlns:xlink="http://www.w3.org/1999/xlink" version="1.1" x="0px" y="0px" viewBox="0 0 64 64" style="enable-background:new 0 0 64 64;" xml:space="preserve" width="512" height="512">
<g id="color">
	<path style="fill:#1E81CE;" d="M50,3H16c-2.2091675,0-4,1.7908325-4,4v50c0,2.2091064-1.7908325,4-4,4h4h34   c2.2091675,0,4-1.7908936,4-4V7c0-2.2091675,1.7908325-4,4-4H50z"/>
	<path style="fill:#5AAAE7;" d="M54.0000038,3h-0.0000076C51.7908592,3,50,4.7908592,50,6.9999962V7h8V6.9999962   C58,4.7908592,56.2091408,3,54.0000038,3z"/>
	<path style="fill:#FFD422;" d="M3,19c0,1.1045532,0.8954468,2,2,2h22.9997559c1.1045532,0,2-0.8954468,2-2V9H3V19z"/>
	<path style="fill:#F40E34;" d="M27.9997559,3H5C3.8954468,3,3,3.8953857,3,5v4h26.9997559V5   C29.9997559,3.8953857,29.1043091,3,27.9997559,3z"/>
	<rect x="16" y="44" style="fill:#FFD422;" width="9" height="2"/>
	<rect x="16" y="48" style="fill:#FFD422;" width="15" height="2"/>
	<rect x="16" y="40" style="fill:#FFD422;" width="14" height="2"/>
	<rect x="20" y="36" style="fill:#FFD422;" width="10" height="2"/>
	<rect x="16" y="32" style="fill:#FFD422;" width="14" height="2"/>
	<rect x="16" y="28" style="fill:#FFD422;" width="22" height="2"/>
	<rect x="20" y="24" style="fill:#FFD422;" width="27" height="2"/>
	
		<rect x="47.2132034" y="46.5147171" transform="matrix(0.7071068 0.7071068 -0.7071068 0.7071068 52.7192993 -22.246212)" style="fill:#69C229;" width="12" height="12"/>
	<polygon style="fill:#FFB398;" points="44.7279205,52.5147171 36.949749,44.7365456 36.949749,37.6654778 40.4852829,36.9583702    45.4350281,41.9081154 40.4852829,36.9583702 36.949749,37.6654778 36.949749,40.4939041 32.7071075,40.4939041    32.7071075,34.8370476 41.1923866,30.594408 47.5563126,32.7157173 50.3846397,35.5437469 53.2132034,44.029438  "/>
	<path style="fill:#F40E34;" d="M41.8994942,38.3725815l7.7781754-7.7781734c0.7810478-0.7810478,2.0473747-0.7810478,2.8284225,0   l0.0000038,0.0000038c0.7810478,0.7810478,0.7810478,2.0473766,0,2.8284245l-7.7781754,7.7781754L41.8994942,38.3725815z"/>
	<polygon style="fill:#FF9811;" points="32.7070923,47.5649414 32,51.1004639 35.5355225,50.3933716 36.2426147,49.6862793    33.4141846,46.8578491  "/>
	<polygon style="fill:#F40E34;" points="36.9497681,43.3223267 33.4141846,46.8578491 36.2426147,49.6862793 39.0710449,46.8578491     "/>
	<rect x="18" y="53" style="fill:#FFD422;" width="21" height="2"/>
	<rect x="36" y="7" style="fill:#FFFFFF;" width="10" height="10"/>
	<path style="fill:#5AAAE7;" d="M45,61H8.9999962C6.7908592,61,5,59.2091408,5,57.0000038V57h36.0000038   c0,2.209137,1.7908592,3.9999962,3.9999962,3.9999962V61z"/>
	<path style="fill:#5AAAE7;" d="M45,61H8.9999962C6.7908592,61,5,59.2091408,5,57.0000038V57h36.0000038   c0,2.209137,1.7908592,3.9999962,3.9999962,3.9999962V61z"/>
	<path style="fill:#5AAAE7;" d="M45,61H8.9999962C6.7908592,61,5,59.2091408,5,57.0000038V57h36.0000038   c0,2.209137,1.7908592,3.9999962,3.9999962,3.9999962V61z"/>
	<rect x="5" y="9" style="fill:#FFFFFF;" width="2" height="2"/>
	<polygon style="fill:#FFFFFF;" points="7,16 7,13 5,13 5,18 7,18 9,18 9,16  "/>
</g>
<g id="Layer_3">
	<path d="M5,22h23c1.6542969,0,3-1.3457031,3-3V5c0-1.6542969-1.3457031-3-3-3H5C3.3457031,2,2,3.3457031,2,5v14   C2,20.6542969,3.3457031,22,5,22z M28,20H5c-0.5512695,0-1-0.4487305-1-1v-9h25v9C29,19.5512695,28.5512695,20,28,20z M5,4h23   c0.5512695,0,1,0.4487305,1,1v3H4V5C4,4.4487305,4.4487305,4,5,4z"/>
	<rect x="16" y="44" width="9" height="2"/>
	<rect x="16" y="48" width="15" height="2"/>
	<rect x="16" y="40" width="14" height="2"/>
	<rect x="20" y="36" width="10" height="2"/>
	<rect x="16" y="32" width="14" height="2"/>
	<rect x="16" y="28" width="22" height="2"/>
	<rect x="20" y="24" width="27" height="2"/>
	<path d="M51.5289917,35.8139038l1.6838989-1.684021c1.1699219-1.1699219,1.1699219-3.0732422,0-4.2426758   c-1.1699219-1.1699219-3.0722656-1.1699219-4.2421875,0l-1.6844482,1.6844482l-6.1705322-2.0570068L31.7070313,34.21875v7.2753906   h4.2426758v1.4140015l-4.1640625,4.1636353l-1.0605469,5.3037109l5.3037109-1.0605469l3.0425415-3.0429077l4.2426147,4.2426147   l0.7070313,0.7070313l9.1923828,9.1923828l9.8989258-9.8994141l-9.0246582-9.0250854L51.5289917,35.8139038z    M50.3847656,31.3012695c0.3896484-0.3896484,1.0244141-0.3896484,1.4140625,0   c0.3896484,0.3901367,0.3896484,1.0244141,0,1.4145508l-7.0708008,7.0712891l-1.4145508-1.4145508L50.3847656,31.3012695z    M33.7070313,39.4941406v-4.0390625l7.5620117-3.78125l4.4360352,1.4790039l-3.8056641,3.8056641l-1.0854492-1.0854492   l-4.8642578,0.9726563v2.6484375H33.7070313z M33.5570679,48.414978l1.12854,1.12854l-1.4107056,0.2821655L33.5570679,48.414978z    M36.2424927,48.2722778l-1.4141846-1.4141846l1.4144287-1.4146729l1.4144287,1.4144287L36.2424927,48.2722778z    M37.949707,44.3222656v-5.8369141l2.2070313-0.4414063l4.5712891,4.5712891l1.4140625-1.4140625l0,0l3.805603-3.8059082   l2.121521,6.3641357l-7.3411865,7.3411865L37.949707,44.3222656z M53.2133789,59.5859375l-7.0712891-7.0712891l7.0712891-7.0712891   l7.0708008,7.0712891L53.2133789,59.5859375z"/>
	<path d="M49,27.0004883h2V8h8V7c0-2.7568359-2.2431641-5-5-5H33.0004883v2h17.0019531C49.3735352,4.8364258,49,5.8754883,49,7   V27.0004883z M54,4c1.3037109,0,2.4160156,0.8359375,2.8286133,2h-5.6443481C51.5983887,4.838501,52.6980591,4,54,4z"/>
	<rect x="16" y="52" width="21" height="2"/>
	<path d="M47,6H35v12h12V6z M45,16h-8V8h8V16z"/>
	<path d="M47.984375,59.2504883C47.4370117,59.7338867,46.7324219,60,46,60h-1c-1.6542969,0-3-1.3457031-3-3v-1H13V22.9995117h-2V56   H4v1c0,2.7568359,2.2431641,5,5,5h35h1h1c1.2202148,0,2.3950195-0.4438477,3.3085938-1.2504883L47.984375,59.2504883z M9,60   c-1.3037109,0-2.4160156-0.8359375-2.8286133-2h33.9291992c0.1503906,0.7382813,0.4643555,1.418457,0.9018555,2H9z"/>
</g>
</svg>
