<svg height="512" viewBox="0 0 64 64" width="512" xmlns="http://www.w3.org/2000/svg"><path d="m41 23h6v9h-6z" fill="#ffc477"/><path d="m52 9v8a8.008 8.008 0 0 1 -5 7.42 8 8 0 0 1 -11-7.42v-8z" fill="#ffdaaa"/><path d="m3 43h58v4h-58z" fill="#957856"/><path d="m5 47h54v14h-54z" fill="#b39a7c"/><path d="m47 29h2.06l-5.06 10-5.06-10h2.06z" fill="#57565c"/><path d="m44 43h-15v-6a8 8 0 0 1 8-8h1.94l-1.94 3 2 2-2 2 7 3z" fill="#2488ff"/><path d="m58 43h-14v-4l7-3-2-2 2-2-1.94-3h.94a8 8 0 0 1 8 8z" fill="#2488ff"/><path d="m49.06 29 1.94 3-2 2 2 2-7 3z" fill="#005ece"/><path d="m38.94 29 5.06 10-7-3 2-2-2-2z" fill="#005ece"/><path d="m35 3h18v6h-18z" fill="#ffda44"/><path d="m52 9-2 5h-12l-2-5z" fill="#ffeb99"/><path d="m52 17v-5h.5a2.5 2.5 0 0 1 0 5z" fill="#ffc477"/><path d="m36 12v5h-.5a2.5 2.5 0 1 1 0-5z" fill="#ffc477"/><path d="m22 37v3h-14v-3h2 10z" fill="#ffda44"/><path d="m20 37h-10a5 5 0 0 1 10 0z" fill="#ff5023"/><path d="m61 42h-2v-5a9.014 9.014 0 0 0 -9-9h-2v-2.95a9.007 9.007 0 0 0 4.95-7.1 3.48 3.48 0 0 0 .05-6.9v-1.05a1 1 0 0 0 1-1v-6a1 1 0 0 0 -1-1h-18a1 1 0 0 0 -1 1v6a1 1 0 0 0 1 1v1.05a3.48 3.48 0 0 0 .05 6.9 9.007 9.007 0 0 0 4.95 7.1v2.95h-3a9.014 9.014 0 0 0 -9 9v5h-25a1 1 0 0 0 -1 1v4a1 1 0 0 0 1 1h1v13a1 1 0 0 0 1 1h54a1 1 0 0 0 1-1v-13h1a1 1 0 0 0 1-1v-4a1 1 0 0 0 -1-1zm-8-28.91a1.494 1.494 0 0 1 0 2.82zm-18 2.82a1.494 1.494 0 0 1 0-2.82zm16.71 19.38-1.3-1.29 1.3-1.29a1 1 0 0 0 .13-1.25l-.9-1.39a7 7 0 0 1 6.06 6.93v5h-4v-3h-2v3h-6v-2.34l6.39-2.74a.977.977 0 0 0 .59-.73 1.026 1.026 0 0 0 -.27-.9zm-4.28-5.29-3.43 6.78-3.43-6.78zm-5.43-2v-2.23a8.811 8.811 0 0 0 4 0v2.23zm7.16 3 .56.86-1.43 1.43a1.008 1.008 0 0 0 0 1.42l.96.95-3.12 1.34zm-13.16-27h16v4h-16zm14.52 6-1.2 3h-10.64l-1.2-3zm-13.52 7v-2.81l.07.18a1 1 0 0 0 .93.63h12a1 1 0 0 0 .93-.63l.07-.18v2.81a7 7 0 0 1 -14 0zm1.84 14 3.03 6-3.12-1.34.96-.95a1.008 1.008 0 0 0 0-1.42l-1.43-1.43zm-8.84 6a7.008 7.008 0 0 1 7-7h.1l-.94 1.46a1 1 0 0 0 .13 1.25l1.3 1.29-1.3 1.29a1.026 1.026 0 0 0 -.27.9.977.977 0 0 0 .59.73l6.39 2.74v2.34h-7v-3h-2v3h-4zm28 23h-52v-12h52zm2-14h-56v-2h56z"/><path d="m22 36h-1.09a5.992 5.992 0 0 0 -4.91-4.91v-1.09h2v-2h-6v2h2v1.09a5.992 5.992 0 0 0 -4.91 4.91h-1.09a1 1 0 0 0 -1 1v3a1 1 0 0 0 1 1h14a1 1 0 0 0 1-1v-3a1 1 0 0 0 -1-1zm-7-3a4 4 0 0 1 3.86 3h-7.72a4 4 0 0 1 3.86-3zm6 6h-12v-1h12z"/></svg>